<svg xmlns="http://www.w3.org/2000/svg" version="1.1" xmlns:xlink="http://www.w3.org/1999/xlink" xmlns:svgjs="http://svgjs.dev/svgjs" width="1500" height="310" viewBox="0 0 1500 310"><g transform="matrix(1,0,0,1,-0.9090909090909918,-0.04795896106168129)"><svg viewBox="0 0 396 82" data-background-color="#282634" preserveAspectRatio="xMidYMid meet" height="310" width="1500" xmlns="http://www.w3.org/2000/svg" xmlns:xlink="http://www.w3.org/1999/xlink"><g id="tight-bounds" transform="matrix(1,0,0,1,0.2400000000000091,0.012685918732444179)"><svg viewBox="0 0 395.52 81.97462816253513" height="81.97462816253513" width="395.52"><g><svg viewBox="0 0 395.52 81.97462816253513" height="81.97462816253513" width="395.52"><g><svg viewBox="0 0 395.52 81.97462816253513" height="81.97462816253513" width="395.52"><g id="textblocktransform"><svg viewBox="0 0 395.52 81.97462816253513" height="81.97462816253513" width="395.52" id="textblock"><g><svg viewBox="0 0 395.52 81.97462816253513" height="81.97462816253513" width="395.52"><g transform="matrix(1,0,0,1,0,0)"><svg width="395.52" viewBox="4 -40 195.64 40.55" height="81.97462816253513" data-palette-color="#fffb40"><g class="wordmark-text-0" data-fill-palette-color="primary" id="text-0"><path d="M25.15-2.1L25.15-37.55Q25.15-39.95 28.1-39.95L28.1-39.95Q31.1-39.95 31.1-37.55L31.1-37.55 31.1-2.1Q31.1 0.3 28.1 0.3L28.1 0.3Q25.15 0.3 25.15-2.1L25.15-2.1ZM9.95-37.55L9.95-2.1Q9.95 0.3 6.95 0.3L6.95 0.3Q4 0.3 4-2.1L4-2.1 4-37.55Q4-39.95 6.95-39.95L6.95-39.95Q9.95-39.95 9.95-37.55L9.95-37.55ZM21.65-20.65L21.65-20.65Q21.65-18.9 20.45-17.7 19.25-16.5 17.5-16.5L17.5-16.5Q15.8-16.5 14.6-17.7 13.4-18.9 13.4-20.65L13.4-20.65Q13.4-22.4 14.6-23.6 15.8-24.8 17.5-24.8L17.5-24.8Q19.25-24.8 20.45-23.6 21.65-22.4 21.65-20.65ZM43.45-22.15L43.45-8Q43.45-6.8 44.22-5.75 45-4.7 46.85-4.7L46.85-4.7 53.1-4.7Q54.95-4.7 55.72-5.63 56.5-6.55 56.5-7.75L56.5-7.75 56.5-8.3Q56.5-10.65 59.25-10.65L59.25-10.65Q62-10.65 62-8.3L62-8.3 62-7.7Q62-5.6 61.32-4.25 60.65-2.9 59.3-1.9L59.3-1.9Q56.65 0 54 0L54 0 45.6 0Q42.95 0 40.45-1.9L40.45-1.9Q39.25-2.9 38.6-4.42 37.95-5.95 37.95-7.95L37.95-7.95 37.95-22.2Q37.95-26.25 40.45-28.2L40.45-28.2Q41.7-29.1 43.02-29.63 44.35-30.15 45.6-30.15L45.6-30.15 54-30.15Q55.2-30.15 56.65-29.68 58.1-29.2 59.35-28.4L59.35-28.4Q60.55-27.55 61.27-26.05 62-24.55 62-22.5L62-22.5 62-15.75Q62-14.6 61.32-13.7 60.65-12.8 58.85-12.8L58.85-12.8 48.05-12.8Q46.25-12.8 46.15-15.15L46.15-15.15Q46.15-17.5 48.05-17.5L48.05-17.5 56.55-17.5 56.5-22.15Q56.5-23.4 55.72-24.43 54.95-25.45 53.1-25.45L53.1-25.45 46.85-25.45Q45-25.45 44.22-24.43 43.45-23.4 43.45-22.15L43.45-22.15ZM82.45 0L75.9 0Q74.34 0 72.95-0.43 71.55-0.85 70.25-1.65L70.25-1.65 70.25-1.6Q67.8-3.15 67.8-7.3L67.8-7.3 67.8-9.75Q67.8-11.8 68.52-13.33 69.25-14.85 70.55-15.75L70.55-15.75 70.5-15.75Q71.75-16.6 73.14-17.03 74.55-17.45 75.84-17.45L75.84-17.45 86.9-17.45 86.9-22.1Q86.9-23.35 86.12-24.38 85.34-25.4 83.5-25.4L83.5-25.4 77.65-25.4Q75.75-25.4 75.02-24.48 74.3-23.55 74.3-22.3L74.3-22.3 74.3-21.9Q74.3-19.3 71.5-19.3L71.5-19.3Q68.7-19.3 68.7-21.9L68.7-21.9 68.7-22.35Q68.7-24.4 69.42-25.8 70.14-27.2 71.39-28.15L71.39-28.15 71.34-28.15Q72.64-29 74.07-29.55 75.5-30.1 76.8-30.1L76.8-30.1 84.4-30.1Q85.65-30.1 87.07-29.55 88.5-29 89.75-28.15L89.75-28.15 89.7-28.15Q91-27.2 91.7-25.68 92.4-24.15 92.4-22.15L92.4-22.15 92.4-2.1Q92.4 0.3 89.65 0.3L89.65 0.3Q89.09 0.3 88.62 0.25 88.15 0.2 87.77-0.03 87.4-0.25 87.17-0.68 86.95-1.1 86.95-1.8L86.95-1.8 86.9-12.75 76.8-12.75Q75.7-12.75 75.09-12.5 74.5-12.25 74.14-11.7L74.14-11.7Q73.75-10.85 73.57-10.38 73.39-9.9 73.39-9.3L73.39-9.3 73.39-7.35Q73.39-6.05 74.17-5.38 74.95-4.7 76.84-4.7L76.84-4.7 82.45-4.7Q84.3-4.7 84.3-2.35L84.3-2.35Q84.3-1.35 83.84-0.68 83.4 0 82.45 0L82.45 0ZM104.24-22.75L104.24-2.1Q104.24 0.3 101.49 0.3L101.49 0.3Q98.64 0.3 98.64-2.1L98.64-2.1 98.64-22.8Q98.64-26.9 101.09-28.5L101.09-28.5Q103.54-30.1 106.74-30.1L106.74-30.1 112.44-30.1Q114.29-30.1 114.29-27.75L114.29-27.75Q114.39-25.4 112.44-25.4L112.44-25.4 107.14-25.4Q105.34-25.4 104.79-24.7 104.24-24 104.24-22.75L104.24-22.75ZM139.99-26.5L124.04-8.35 124.04-2Q124.04 0.35 121.29 0.35L121.29 0.35Q118.54 0.35 118.54-2L118.54-2 118.54-37.6Q118.54-40 121.29-40L121.29-40Q124.04-40 124.04-37.6L124.04-37.6 124.04-16.4Q125.29-17.9 126.82-19.63 128.34-21.35 129.87-23.13 131.39-24.9 132.89-26.63 134.39-28.35 135.69-29.85L135.69-29.85 135.69-29.8Q136.59-30.85 137.49-30.85L137.49-30.85Q137.99-30.85 138.47-30.63 138.94-30.4 139.49-30L139.49-30 139.44-30Q140.64-29 140.64-28L140.64-28Q140.64-27.65 140.49-27.23 140.34-26.8 139.99-26.5L139.99-26.5ZM135.24-13.75L140.74-3.35Q141.09-2.7 141.09-2L141.09-2Q141.09-0.7 139.59-0.05L139.59-0.05Q138.59 0.55 137.79 0.55L137.79 0.55Q137.24 0.55 136.74 0.18 136.24-0.2 135.94-0.75L135.94-0.75 130.94-10.4Q130.49-11.15 130.49-11.9L130.49-11.9Q130.49-13.15 131.79-14L131.79-14Q132.14-14.25 132.52-14.45 132.89-14.65 133.34-14.75L133.34-14.75Q133.89-14.85 134.39-14.55 134.89-14.25 135.24-13.75L135.24-13.75ZM150.69-22.15L150.69-8Q150.69-6.8 151.46-5.75 152.24-4.7 154.09-4.7L154.09-4.7 160.34-4.7Q162.19-4.7 162.96-5.63 163.74-6.55 163.74-7.75L163.74-7.75 163.74-8.3Q163.74-10.65 166.49-10.65L166.49-10.65Q169.24-10.65 169.24-8.3L169.24-8.3 169.24-7.7Q169.24-5.6 168.56-4.25 167.89-2.9 166.54-1.9L166.54-1.9Q163.89 0 161.24 0L161.24 0 152.84 0Q150.19 0 147.69-1.9L147.69-1.9Q146.49-2.9 145.84-4.42 145.19-5.95 145.19-7.95L145.19-7.95 145.19-22.2Q145.19-26.25 147.69-28.2L147.69-28.2Q148.94-29.1 150.26-29.63 151.59-30.15 152.84-30.15L152.84-30.15 161.24-30.15Q162.44-30.15 163.89-29.68 165.34-29.2 166.59-28.4L166.59-28.4Q167.79-27.55 168.51-26.05 169.24-24.55 169.24-22.5L169.24-22.5 169.24-15.75Q169.24-14.6 168.56-13.7 167.89-12.8 166.09-12.8L166.09-12.8 155.29-12.8Q153.49-12.8 153.39-15.15L153.39-15.15Q153.39-17.5 155.29-17.5L155.29-17.5 163.79-17.5 163.74-22.15Q163.74-23.4 162.96-24.43 162.19-25.45 160.34-25.45L160.34-25.45 154.09-25.45Q152.24-25.45 151.46-24.43 150.69-23.4 150.69-22.15L150.69-22.15ZM181.09-21.75L181.09-2.1Q181.09 0.3 178.34 0.3L178.34 0.3Q175.59 0.3 175.59-2.1L175.59-2.1 175.59-22.2Q175.59-24.25 176.24-25.75 176.89-27.25 178.29-28.2L178.29-28.2Q180.94-30.1 183.59-30.1L183.59-30.1 191.64-30.1Q194.19-30.1 196.94-28.2L196.94-28.2Q199.64-26.3 199.64-22.2L199.64-22.2 199.64-2.1Q199.64 0.3 196.89 0.3L196.89 0.3Q194.14 0.3 194.14-2.1L194.14-2.1 194.14-21.75Q194.14-23.05 193.34-24.25L193.34-24.25 193.39-24.2Q192.74-25.4 190.74-25.4L190.74-25.4 184.49-25.4Q182.44-25.4 181.79-24.2L181.79-24.2Q181.09-23.15 181.09-21.75L181.09-21.75Z" fill="#000" data-fill-palette-color="primary"></path></g></svg></g></svg></g></svg></g></svg></g></svg></g><defs></defs></svg><rect width="395.52" height="81.97462816253513" fill="none" stroke="none" visibility="hidden"></rect></g></svg></g></svg>